<?xml version="1.0" standalone="no"?>
<!DOCTYPE svg PUBLIC "-//W3C//DTD SVG 20010904//EN"
 "http://www.w3.org/TR/2001/REC-SVG-20010904/DTD/svg10.dtd">
<svg version="1.0" xmlns="http://www.w3.org/2000/svg"
 width="512.000000pt" height="512.000000pt" viewBox="0 0 512.000000 512.000000"
 preserveAspectRatio="xMidYMid meet">
<metadata>
Created by potrace 1.14, written by Peter Selinger 2001-2017
</metadata>
<g transform="translate(0.000000,512.000000) scale(0.100000,-0.100000)"
fill="#000000" stroke="none">
<path d="M2527 5012 c-14 -16 -17 -43 -17 -166 0 -82 5 -156 10 -167 7 -12 21
-19 40 -19 19 0 33 7 40 19 5 11 10 85 10 169 0 132 -2 151 -18 165 -24 22
-45 21 -65 -1z"/>
<path d="M1592 4844 c-12 -8 -22 -23 -22 -33 0 -23 150 -270 172 -284 26 -17
68 7 68 38 0 31 -144 271 -170 285 -24 13 -22 13 -48 -6z"/>
<path d="M3478 4849 c-25 -14 -168 -256 -168 -285 0 -30 42 -54 68 -37 22 14
172 261 172 284 0 10 -10 25 -22 33 -26 18 -27 19 -50 5z"/>
<path d="M2380 4429 c-636 -67 -1176 -555 -1311 -1187 -29 -140 -37 -383 -15
-528 49 -331 189 -601 434 -836 163 -156 199 -198 236 -268 56 -105 67 -162
74 -380 l7 -195 29 -10 c40 -14 66 19 66 86 l0 49 640 0 640 0 0 -120 0 -120
-443 0 c-481 0 -487 -1 -487 -55 0 -54 6 -55 488 -55 l444 0 -4 -118 c-4 -131
-15 -159 -73 -186 -29 -14 -100 -16 -570 -16 -592 0 -576 -2 -615 63 -13 21
-20 50 -20 83 0 55 -19 84 -56 84 -34 0 -44 -21 -44 -95 0 -62 4 -78 33 -125
42 -72 112 -110 198 -110 l59 0 0 -82 c0 -99 21 -153 71 -189 l34 -24 342 0
c331 0 342 1 370 21 59 44 73 78 73 180 l0 94 51 0 c107 0 184 46 225 134 24
51 24 51 24 466 0 463 3 487 66 612 31 62 62 98 203 238 188 186 260 282 346
463 93 193 136 382 139 602 0 72 -2 142 -7 157 -9 35 -50 48 -76 24 -17 -15
-19 -34 -19 -154 -1 -145 -11 -229 -43 -355 -66 -258 -222 -507 -434 -688
-185 -159 -275 -338 -275 -546 l0 -83 -175 0 -175 0 0 168 c0 177 -4 192 -46
192 -47 0 -54 -22 -54 -158 0 -70 -3 -144 -6 -164 l-7 -38 -182 0 -183 0 -6
278 c-4 152 -10 376 -14 497 -8 210 -10 222 -35 271 -36 71 -82 107 -246 193
-159 83 -192 113 -217 197 -20 69 -8 147 30 205 29 43 97 79 149 79 39 0 77
27 77 55 0 8 -9 24 -21 36 -18 18 -28 20 -72 14 -109 -14 -205 -84 -250 -184
-16 -35 -21 -66 -22 -136 0 -82 3 -96 33 -157 18 -37 49 -80 68 -96 20 -17
105 -67 190 -112 218 -117 207 -93 216 -450 3 -151 9 -368 12 -482 l5 -208
-175 0 -174 0 0 44 c0 76 -20 196 -44 263 -42 114 -84 171 -261 348 -185 184
-253 275 -331 439 -142 302 -163 692 -52 1026 157 479 590 849 1091 934 125
22 351 22 470 1 432 -76 806 -350 1004 -735 27 -52 56 -114 65 -138 18 -46 35
-57 73 -48 40 10 40 43 1 133 -82 186 -176 323 -321 468 -251 252 -562 399
-914 435 -117 11 -179 11 -301 -1z"/>
<path d="M3920 3280 c-23 -23 -25 -40 -7 -62 19 -24 43 -28 66 -12 27 20 27
59 -1 78 -29 20 -34 20 -58 -4z"/>
<path d="M2326 3217 c-17 -12 -106 -291 -106 -332 0 -12 5 -26 12 -33 16 -16
63 -15 75 1 14 17 95 296 95 326 0 24 -25 51 -47 51 -6 0 -19 -6 -29 -13z"/>
<path d="M2572 3213 c-20 -18 -102 -280 -102 -326 0 -41 43 -61 79 -38 14 9
101 289 101 327 0 21 -28 54 -47 54 -6 0 -20 -8 -31 -17z"/>
<path d="M2817 3213 c-8 -10 -36 -88 -60 -173 -39 -133 -44 -158 -33 -175 17
-27 58 -31 78 -8 15 18 98 292 98 325 0 17 -36 48 -56 48 -6 0 -18 -8 -27 -17z"/>
<path d="M2983 3069 c-7 -7 -13 -23 -13 -35 0 -36 26 -54 79 -54 125 0 212
-109 198 -246 -6 -55 -34 -119 -63 -145 -11 -9 -77 -47 -149 -84 -71 -38 -149
-82 -172 -98 -90 -63 -123 -154 -123 -338 0 -102 2 -118 20 -134 25 -23 68
-13 75 18 2 12 8 84 13 159 8 133 9 139 39 175 22 27 73 61 184 120 176 93
223 135 258 228 31 82 27 196 -10 276 -29 62 -82 119 -137 145 -47 23 -181 31
-199 13z"/>
<path d="M2752 1808 c-7 -7 -12 -24 -12 -38 0 -32 17 -50 45 -50 25 0 55 29
55 53 0 38 -61 62 -88 35z"/>
<path d="M1812 908 c-22 -22 -15 -67 12 -80 31 -14 53 -5 68 27 9 21 8 28 -7
45 -20 22 -55 26 -73 8z"/>
</g>
</svg>
