<svg width="16" height="22" viewBox="0 0 16 22" fill="none" xmlns="http://www.w3.org/2000/svg">
<path fill-rule="evenodd" clip-rule="evenodd" d="M7.2216 4.51418C6.76625 4.61138 6.32152 4.79998 5.91047 5.07019C4.15479 6.22441 3.67618 8.55525 4.83553 10.3054C6.16335 12.3097 8.97201 12.5912 10.6787 10.8911C11.4151 10.1574 11.7938 9.25149 11.7938 8.22319C11.7938 6.42039 10.5276 4.87601 8.75049 4.5112C8.34643 4.42828 7.61752 4.42971 7.2216 4.51418ZM8.56231 5.34448C9.45315 5.51431 10.2276 6.10756 10.6299 6.92837C11.0559 7.79767 11.0551 8.64842 10.6274 9.52473C10.3499 10.0933 9.8779 10.5634 9.30716 10.8399C8.8725 11.0504 8.41956 11.1622 8.00063 11.1622C7.58169 11.1622 7.12875 11.0504 6.69409 10.8399C6.35937 10.6778 6.23424 10.5867 5.93112 10.2848C5.6302 9.98502 5.53512 9.85579 5.37176 9.52473C4.94486 8.65954 4.94486 7.78684 5.37176 6.92165C5.53512 6.5906 5.6302 6.46137 5.93112 6.1616C6.23167 5.86224 6.36224 5.76681 6.69409 5.60399C7.3101 5.30178 7.90478 5.2192 8.56231 5.34448Z" fill="#1B1C1E"/>
<path fill-rule="evenodd" clip-rule="evenodd" d="M7.03126 0.309203C3.66631 0.720405 0.929722 3.19854 0.187401 6.50671C-0.258842 8.49538 0.102519 10.6749 1.15773 12.3587C1.27351 12.5435 2.67086 14.5317 4.26298 16.7771C5.85509 19.0224 7.1577 20.8692 7.1577 20.8811C7.1577 20.893 5.90503 20.9027 4.37395 20.9027C2.04706 20.9027 1.57114 20.9125 1.47408 20.9625C1.1936 21.107 1.1936 21.5381 1.47408 21.6826C1.64857 21.7725 14.3527 21.7725 14.5272 21.6826C14.8077 21.5381 14.8077 21.107 14.5272 20.9625C14.4301 20.9125 13.9542 20.9027 11.6273 20.9027C10.0962 20.9027 8.84355 20.8928 8.84355 20.8806C8.84355 20.8685 9.29527 20.2214 9.84734 19.4426C10.3995 18.6639 13.8983 13.7351 13.9605 13.6432C14.3988 13.0229 14.8584 12.3398 14.9818 12.1251C16.0917 10.1936 16.3089 7.75233 15.5611 5.61226C14.3226 2.06783 10.7608 -0.146546 7.03126 0.309203ZM9.14468 18.9593C9.76832 18.0769 13.1476 13.2789 13.2198 13.2128C14.2664 11.7405 14.4558 11.4113 14.7644 10.5285C15.2747 9.06844 15.2761 7.44781 14.7685 5.93651C14.1879 4.20815 12.8915 2.71856 11.2444 1.88742C9.16369 0.837502 6.81969 0.836704 4.7552 1.88524C4.09591 2.22007 3.61616 2.56313 3.05507 3.10101C2.20498 3.91585 1.57039 4.91502 1.21164 6.00335C0.575399 7.93341 0.800712 10.0927 1.81635 11.7994C1.98283 12.0792 7.78172 20.299 7.94862 20.4918C8.00535 20.5573 8.11126 20.4216 9.14468 18.9593Z" fill="#1B1C1E"/>
<path fill-rule="evenodd" clip-rule="evenodd" d="M13.2198 13.2128C13.1476 13.2789 9.76832 18.0769 9.14468 18.9593C8.11126 20.4216 8.00535 20.5573 7.94862 20.4918C7.78172 20.299 1.98283 12.0792 1.81635 11.7994C0.800712 10.0927 0.575399 7.93341 1.21164 6.00335C1.57039 4.91502 2.20498 3.91585 3.05507 3.10101C3.61616 2.56313 4.09591 2.22007 4.7552 1.88524C6.81969 0.836704 9.16369 0.837502 11.2444 1.88742C12.8915 2.71856 14.1879 4.20815 14.7685 5.93651C15.2761 7.44781 15.2747 9.06844 14.7644 10.5285C14.4558 11.4113 14.2664 11.7405 13.2198 13.2128ZM5.91047 5.07019C6.32152 4.79998 6.76625 4.61138 7.2216 4.51418C7.61752 4.42971 8.34643 4.42828 8.75049 4.5112C10.5276 4.87601 11.7938 6.42039 11.7938 8.22319C11.7938 9.25149 11.4151 10.1574 10.6787 10.8911C8.97201 12.5912 6.16335 12.3097 4.83553 10.3054C3.67618 8.55525 4.15479 6.22441 5.91047 5.07019Z" fill="#28FBE6"/>
</svg>
