<svg width="512" height="512" viewBox="0 0 512 512" fill="none" xmlns="http://www.w3.org/2000/svg">
<path d="M256 512C397.385 512 512 397.385 512 256C512 114.615 397.385 0 256 0C114.615 0 0 114.615 0 256C0 397.385 114.615 512 256 512Z" fill="url(#paint0_radial_88_376)"/>
<path d="M116 226L136 206V306H116V226Z" fill="#28FBE6"/>
<path d="M196 286H136V306H196V286Z" fill="#28FBE6"/>
<path d="M296 206H216V226H296V206Z" fill="#28FBE6"/>
<path d="M296 246H236V266H296V246Z" fill="#28FBE6"/>
<path d="M296 286H236V306H296V286Z" fill="#28FBE6"/>
<path d="M216 242L236 226V306H216V242Z" fill="#28FBE6"/>
<path d="M316 242L336 226V306H316V242Z" fill="#28FBE6"/>
<path d="M336 246H396L376 266H336V246Z" fill="#28FBE6"/>
<path d="M316 206H376L396 226H316V206Z" fill="#28FBE6"/>
<path d="M396 226H376V246H396V226Z" fill="#28FBE6"/>
<path d="M116.875 347V332.723H119.219V345.008H125.283V347H116.875ZM127.754 347V332.723H130.098V347H127.754ZM139.629 339.246H144.961V346.414C144.212 346.661 143.438 346.854 142.637 346.99C141.836 347.127 140.938 347.195 139.941 347.195C138.49 347.195 137.259 346.909 136.25 346.336C135.247 345.757 134.486 344.92 133.965 343.826C133.444 342.726 133.184 341.401 133.184 339.852C133.184 338.361 133.473 337.068 134.053 335.975C134.632 334.874 135.475 334.025 136.582 333.426C137.689 332.82 139.03 332.518 140.605 332.518C141.38 332.518 142.129 332.596 142.852 332.752C143.581 332.902 144.248 333.11 144.854 333.377L144.033 335.311C143.551 335.083 143.011 334.891 142.412 334.734C141.813 334.578 141.191 334.5 140.547 334.5C139.525 334.5 138.643 334.721 137.9 335.164C137.165 335.607 136.598 336.232 136.201 337.039C135.804 337.84 135.605 338.787 135.605 339.881C135.605 340.942 135.765 341.873 136.084 342.674C136.403 343.475 136.901 344.1 137.578 344.549C138.262 344.992 139.144 345.213 140.225 345.213C140.765 345.213 141.224 345.184 141.602 345.125C141.979 345.066 142.327 345.001 142.646 344.93V341.248H139.629V339.246ZM159.639 347H157.305V340.555H150.723V347H148.379V332.723H150.723V338.562H157.305V332.723H159.639V347ZM168.369 347H166.016V334.715H161.836V332.723H172.539V334.715H168.369V347ZM184.189 332.508C184.925 332.508 185.57 332.628 186.123 332.869C186.683 333.11 187.119 333.462 187.432 333.924C187.744 334.38 187.9 334.936 187.9 335.594C187.9 336.473 187.627 337.215 187.08 337.82C186.533 338.426 185.843 338.966 185.01 339.441L188.379 342.723C188.698 342.286 188.962 341.808 189.17 341.287C189.378 340.76 189.557 340.206 189.707 339.627H192.08C191.878 340.434 191.598 341.232 191.24 342.02C190.882 342.801 190.43 343.517 189.883 344.168L192.783 347H189.844L188.398 345.584C187.995 345.91 187.562 346.193 187.1 346.434C186.644 346.674 186.146 346.863 185.605 347C185.065 347.13 184.469 347.195 183.818 347.195C182.822 347.195 181.963 347.036 181.24 346.717C180.518 346.398 179.961 345.942 179.57 345.35C179.186 344.751 178.994 344.041 178.994 343.221C178.994 342.537 179.108 341.951 179.336 341.463C179.57 340.968 179.902 340.535 180.332 340.164C180.762 339.786 181.276 339.428 181.875 339.09C181.549 338.719 181.266 338.357 181.025 338.006C180.785 337.654 180.599 337.293 180.469 336.922C180.345 336.544 180.283 336.141 180.283 335.711C180.283 335.047 180.446 334.477 180.771 334.002C181.097 333.52 181.553 333.152 182.139 332.898C182.725 332.638 183.408 332.508 184.189 332.508ZM183.232 340.486C182.855 340.727 182.529 340.971 182.256 341.219C181.982 341.46 181.771 341.727 181.621 342.02C181.478 342.312 181.406 342.654 181.406 343.045C181.406 343.715 181.641 344.246 182.109 344.637C182.585 345.027 183.197 345.223 183.945 345.223C184.603 345.223 185.179 345.125 185.674 344.93C186.175 344.728 186.611 344.477 186.982 344.178L183.232 340.486ZM184.15 334.324C183.688 334.324 183.288 334.445 182.949 334.686C182.617 334.926 182.451 335.301 182.451 335.809C182.451 336.219 182.559 336.606 182.773 336.971C182.995 337.329 183.301 337.716 183.691 338.133C184.375 337.755 184.883 337.384 185.215 337.02C185.553 336.655 185.723 336.232 185.723 335.75C185.723 335.294 185.57 334.943 185.264 334.695C184.958 334.448 184.587 334.324 184.15 334.324ZM207.988 347H199.902V332.723H207.988V334.695H202.246V338.572H207.627V340.535H202.246V345.018H207.988V347ZM211.074 347V332.723H213.418V345.008H219.482V347H211.074ZM230.039 347H221.953V332.723H230.039V334.695H224.297V338.572H229.678V340.535H224.297V345.018H230.039V347ZM239.209 334.51C238.525 334.51 237.913 334.633 237.373 334.881C236.839 335.128 236.387 335.486 236.016 335.955C235.645 336.417 235.361 336.98 235.166 337.645C234.971 338.302 234.873 339.044 234.873 339.871C234.873 340.978 235.029 341.932 235.342 342.732C235.654 343.527 236.13 344.139 236.768 344.568C237.406 344.992 238.213 345.203 239.189 345.203C239.795 345.203 240.384 345.145 240.957 345.027C241.53 344.91 242.122 344.751 242.734 344.549V346.541C242.155 346.769 241.569 346.935 240.977 347.039C240.384 347.143 239.701 347.195 238.926 347.195C237.467 347.195 236.257 346.893 235.293 346.287C234.336 345.682 233.62 344.829 233.145 343.729C232.676 342.628 232.441 341.339 232.441 339.861C232.441 338.781 232.591 337.791 232.891 336.893C233.19 335.994 233.626 335.219 234.199 334.568C234.772 333.911 235.479 333.406 236.318 333.055C237.165 332.697 238.132 332.518 239.219 332.518C239.935 332.518 240.638 332.599 241.328 332.762C242.025 332.918 242.669 333.143 243.262 333.436L242.441 335.369C241.947 335.135 241.429 334.933 240.889 334.764C240.348 334.594 239.788 334.51 239.209 334.51ZM250.752 347H248.398V334.715H244.219V332.723H254.922V334.715H250.752V347ZM261.123 332.723C262.354 332.723 263.369 332.872 264.17 333.172C264.977 333.471 265.576 333.927 265.967 334.539C266.364 335.151 266.562 335.929 266.562 336.873C266.562 337.576 266.432 338.175 266.172 338.67C265.911 339.165 265.57 339.575 265.146 339.9C264.723 340.226 264.271 340.486 263.789 340.682L267.842 347H265.195L261.748 341.277H259.453V347H257.109V332.723H261.123ZM260.967 334.676H259.453V339.344H261.074C262.161 339.344 262.949 339.142 263.438 338.738C263.932 338.335 264.18 337.739 264.18 336.951C264.18 336.124 263.916 335.538 263.389 335.193C262.868 334.848 262.061 334.676 260.967 334.676ZM269.883 347V332.723H272.227V347H269.883ZM282.08 334.51C281.396 334.51 280.785 334.633 280.244 334.881C279.71 335.128 279.258 335.486 278.887 335.955C278.516 336.417 278.232 336.98 278.037 337.645C277.842 338.302 277.744 339.044 277.744 339.871C277.744 340.978 277.9 341.932 278.213 342.732C278.525 343.527 279.001 344.139 279.639 344.568C280.277 344.992 281.084 345.203 282.061 345.203C282.666 345.203 283.255 345.145 283.828 345.027C284.401 344.91 284.993 344.751 285.605 344.549V346.541C285.026 346.769 284.44 346.935 283.848 347.039C283.255 347.143 282.572 347.195 281.797 347.195C280.339 347.195 279.128 346.893 278.164 346.287C277.207 345.682 276.491 344.829 276.016 343.729C275.547 342.628 275.312 341.339 275.312 339.861C275.312 338.781 275.462 337.791 275.762 336.893C276.061 335.994 276.497 335.219 277.07 334.568C277.643 333.911 278.35 333.406 279.189 333.055C280.036 332.697 281.003 332.518 282.09 332.518C282.806 332.518 283.509 332.599 284.199 332.762C284.896 332.918 285.54 333.143 286.133 333.436L285.312 335.369C284.818 335.135 284.3 334.933 283.76 334.764C283.219 334.594 282.66 334.51 282.08 334.51ZM298.018 332.723C299.86 332.723 301.204 333.1 302.051 333.855C302.897 334.611 303.32 335.669 303.32 337.029C303.32 337.648 303.223 338.237 303.027 338.797C302.839 339.35 302.526 339.842 302.09 340.271C301.654 340.695 301.077 341.03 300.361 341.277C299.652 341.525 298.776 341.648 297.734 341.648H296.211V347H293.867V332.723H298.018ZM297.861 334.666H296.211V339.695H297.49C298.226 339.695 298.851 339.611 299.365 339.441C299.88 339.266 300.27 338.989 300.537 338.611C300.804 338.234 300.938 337.736 300.938 337.117C300.938 336.29 300.687 335.675 300.186 335.271C299.691 334.868 298.916 334.666 297.861 334.666ZM310.186 332.723C311.416 332.723 312.432 332.872 313.232 333.172C314.04 333.471 314.639 333.927 315.029 334.539C315.426 335.151 315.625 335.929 315.625 336.873C315.625 337.576 315.495 338.175 315.234 338.67C314.974 339.165 314.632 339.575 314.209 339.9C313.786 340.226 313.333 340.486 312.852 340.682L316.904 347H314.258L310.811 341.277H308.516V347H306.172V332.723H310.186ZM310.029 334.676H308.516V339.344H310.137C311.224 339.344 312.012 339.142 312.5 338.738C312.995 338.335 313.242 337.739 313.242 336.951C313.242 336.124 312.979 335.538 312.451 335.193C311.93 334.848 311.123 334.676 310.029 334.676ZM331.621 339.842C331.621 340.942 331.481 341.945 331.201 342.85C330.928 343.748 330.514 344.523 329.961 345.174C329.408 345.818 328.714 346.316 327.881 346.668C327.048 347.02 326.071 347.195 324.951 347.195C323.812 347.195 322.822 347.02 321.982 346.668C321.149 346.316 320.456 345.815 319.902 345.164C319.355 344.513 318.945 343.735 318.672 342.83C318.398 341.925 318.262 340.923 318.262 339.822C318.262 338.351 318.503 337.068 318.984 335.975C319.473 334.874 320.212 334.021 321.201 333.416C322.197 332.804 323.454 332.498 324.971 332.498C326.455 332.498 327.689 332.801 328.672 333.406C329.655 334.012 330.391 334.865 330.879 335.965C331.374 337.059 331.621 338.351 331.621 339.842ZM320.723 339.842C320.723 340.942 320.872 341.896 321.172 342.703C321.471 343.504 321.93 344.122 322.549 344.559C323.174 344.988 323.975 345.203 324.951 345.203C325.934 345.203 326.735 344.988 327.354 344.559C327.972 344.122 328.428 343.504 328.721 342.703C329.014 341.896 329.16 340.942 329.16 339.842C329.16 338.169 328.825 336.86 328.154 335.916C327.49 334.965 326.429 334.49 324.971 334.49C323.994 334.49 323.19 334.705 322.559 335.135C321.934 335.564 321.471 336.18 321.172 336.98C320.872 337.775 320.723 338.729 320.723 339.842ZM346.279 339.725C346.279 341.333 345.98 342.677 345.381 343.758C344.782 344.832 343.913 345.643 342.773 346.189C341.634 346.73 340.26 347 338.652 347H334.688V332.723H339.082C340.56 332.723 341.836 332.99 342.91 333.523C343.984 334.051 344.814 334.835 345.4 335.877C345.986 336.912 346.279 338.195 346.279 339.725ZM343.838 339.793C343.838 338.621 343.652 337.658 343.281 336.902C342.917 336.147 342.376 335.587 341.66 335.223C340.951 334.852 340.075 334.666 339.033 334.666H337.031V345.037H338.691C340.417 345.037 341.706 344.598 342.559 343.719C343.411 342.84 343.838 341.531 343.838 339.793ZM360.566 332.723V341.961C360.566 342.957 360.355 343.849 359.932 344.637C359.515 345.424 358.883 346.049 358.037 346.512C357.191 346.967 356.126 347.195 354.844 347.195C353.014 347.195 351.621 346.717 350.664 345.76C349.714 344.796 349.238 343.517 349.238 341.922V332.723H351.582V341.717C351.582 342.908 351.862 343.787 352.422 344.354C352.982 344.92 353.818 345.203 354.932 345.203C355.7 345.203 356.325 345.07 356.807 344.803C357.295 344.529 357.653 344.132 357.881 343.611C358.115 343.084 358.232 342.449 358.232 341.707V332.723H360.566ZM370.303 334.51C369.619 334.51 369.007 334.633 368.467 334.881C367.933 335.128 367.48 335.486 367.109 335.955C366.738 336.417 366.455 336.98 366.26 337.645C366.064 338.302 365.967 339.044 365.967 339.871C365.967 340.978 366.123 341.932 366.436 342.732C366.748 343.527 367.223 344.139 367.861 344.568C368.499 344.992 369.307 345.203 370.283 345.203C370.889 345.203 371.478 345.145 372.051 345.027C372.624 344.91 373.216 344.751 373.828 344.549V346.541C373.249 346.769 372.663 346.935 372.07 347.039C371.478 347.143 370.794 347.195 370.02 347.195C368.561 347.195 367.35 346.893 366.387 346.287C365.43 345.682 364.714 344.829 364.238 343.729C363.77 342.628 363.535 341.339 363.535 339.861C363.535 338.781 363.685 337.791 363.984 336.893C364.284 335.994 364.72 335.219 365.293 334.568C365.866 333.911 366.572 333.406 367.412 333.055C368.258 332.697 369.225 332.518 370.312 332.518C371.029 332.518 371.732 332.599 372.422 332.762C373.118 332.918 373.763 333.143 374.355 333.436L373.535 335.369C373.04 335.135 372.523 334.933 371.982 334.764C371.442 334.594 370.882 334.51 370.303 334.51ZM381.846 347H379.492V334.715H375.312V332.723H386.016V334.715H381.846V347ZM396.445 343.113C396.445 343.96 396.237 344.689 395.82 345.301C395.41 345.913 394.818 346.382 394.043 346.707C393.275 347.033 392.357 347.195 391.289 347.195C390.768 347.195 390.27 347.166 389.795 347.107C389.32 347.049 388.87 346.964 388.447 346.854C388.031 346.736 387.65 346.596 387.305 346.434V344.227C387.884 344.48 388.532 344.712 389.248 344.92C389.964 345.122 390.693 345.223 391.436 345.223C392.041 345.223 392.542 345.145 392.939 344.988C393.343 344.826 393.643 344.598 393.838 344.305C394.033 344.005 394.131 343.657 394.131 343.26C394.131 342.837 394.017 342.479 393.789 342.186C393.561 341.893 393.216 341.626 392.754 341.385C392.298 341.137 391.725 340.874 391.035 340.594C390.566 340.405 390.117 340.19 389.688 339.949C389.264 339.708 388.887 339.425 388.555 339.1C388.223 338.774 387.959 338.39 387.764 337.947C387.575 337.498 387.48 336.971 387.48 336.365C387.48 335.558 387.673 334.868 388.057 334.295C388.447 333.722 388.994 333.283 389.697 332.977C390.407 332.671 391.234 332.518 392.178 332.518C392.926 332.518 393.63 332.596 394.287 332.752C394.951 332.908 395.602 333.13 396.24 333.416L395.498 335.301C394.912 335.06 394.342 334.868 393.789 334.725C393.242 334.581 392.682 334.51 392.109 334.51C391.615 334.51 391.195 334.585 390.85 334.734C390.505 334.884 390.241 335.096 390.059 335.369C389.883 335.636 389.795 335.955 389.795 336.326C389.795 336.743 389.896 337.094 390.098 337.381C390.306 337.661 390.625 337.918 391.055 338.152C391.491 338.387 392.051 338.647 392.734 338.934C393.522 339.259 394.189 339.601 394.736 339.959C395.29 340.317 395.713 340.747 396.006 341.248C396.299 341.743 396.445 342.365 396.445 343.113Z" fill="#28FBE6"/>
<defs>
<radialGradient id="paint0_radial_88_376" cx="0" cy="0" r="1" gradientUnits="userSpaceOnUse" gradientTransform="translate(256 256) rotate(90) scale(256)">
<stop offset="0.963019" stop-color="white"/>
<stop offset="1" stop-color="#28FBE6"/>
</radialGradient>
</defs>
</svg>
